{
  "asset": {
    "version": "2.0",
    "generator": "SDL3D doom level generator v3"
  },
  "scene": 0,
  "scenes": [
    {
      "nodes": [
        0
      ]
    }
  ],
  "nodes": [
    {
      "mesh": 0
    }
  ],
  "meshes": [
    {
      "primitives": [
        {
          "attributes": {
            "POSITION": 0,
            "NORMAL": 1
          },
          "indices": 2,
          "material": 0
        }
      ]
    }
  ],
  "materials": [
    {
      "pbrMetallicRoughness": {
        "baseColorFactor": [
          0.35,
          0.33,
          0.3,
          1.0
        ],
        "metallicFactor": 0.0,
        "roughnessFactor": 1.0
      }
    }
  ],
  "accessors": [
    {
      "bufferView": 0,
      "componentType": 5126,
      "count": 150,
      "type": "VEC3",
      "min": [
        -6.0,
        -0.5,
        -4.0
      ],
      "max": [
        24.0,
        4.5,
        28.0
      ]
    },
    {
      "bufferView": 1,
      "componentType": 5126,
      "count": 150,
      "type": "VEC3"
    },
    {
      "bufferView": 2,
      "componentType": 5123,
      "count": 150,
      "type": "SCALAR"
    }
  ],
  "bufferViews": [
    {
      "buffer": 0,
      "byteOffset": 0,
      "byteLength": 1800,
      "target": 34962
    },
    {
      "buffer": 0,
      "byteOffset": 1800,
      "byteLength": 1800,
      "target": 34962
    },
    {
      "buffer": 0,
      "byteOffset": 3600,
      "byteLength": 300,
      "target": 34963
    }
  ],
  "buffers": [
    {
      "uri": "data:application/octet-stream;base64,",
      "byteLength": 3900
    }
  ]
}